<svg xmlns="http://www.w3.org/2000/svg" xmlns:xlink="http://www.w3.org/1999/xlink" width="500" zoomAndPan="magnify" viewBox="0 0 375 374.999991" height="500" preserveAspectRatio="xMidYMid meet" version="1.0"><defs><clipPath id="id1"><path d="M 169 262 L 203 262 L 203 280.253906 L 169 280.253906 Z M 169 262 " clip-rule="nonzero"/></clipPath><clipPath id="id2"><path d="M 138.898438 122 L 236.398438 122 L 236.398438 233 L 138.898438 233 Z M 138.898438 122 " clip-rule="nonzero"/></clipPath><clipPath id="id3"><path d="M 162 95.003906 L 213 95.003906 L 213 121 L 162 121 Z M 162 95.003906 " clip-rule="nonzero"/></clipPath></defs><path fill="#545454" d="M 204.464844 243.234375 L 166.085938 234.835938 C 165.988281 234.808594 165.890625 234.785156 165.792969 234.738281 C 165.082031 234.566406 164.398438 234.296875 163.785156 233.980469 C 162.441406 233.34375 161.316406 232.441406 160.703125 231.367188 C 160.335938 230.730469 159.972656 229.707031 160.335938 228.558594 C 160.777344 227.265625 162.074219 226.261719 163.761719 225.652344 C 164.375 225.433594 165.058594 225.285156 165.769531 225.1875 C 166.183594 225.140625 166.550781 225.042969 166.992188 225.042969 C 167.796875 225.042969 168.605469 225.140625 169.386719 225.308594 L 185.972656 228.949219 L 187.976562 229.386719 L 207.792969 233.710938 C 207.890625 233.734375 207.988281 233.785156 208.085938 233.808594 C 208.792969 233.980469 209.480469 234.25 210.089844 234.542969 C 211.4375 235.199219 212.539062 236.078125 213.148438 237.152344 C 213.515625 237.789062 213.882812 238.816406 213.515625 239.960938 C 213.074219 241.257812 211.777344 242.257812 210.089844 242.867188 C 209.113281 243.210938 208.0625 243.453125 206.886719 243.453125 C 206.152344 243.453125 205.394531 243.355469 204.683594 243.210938 C 204.613281 243.1875 204.539062 243.210938 204.464844 243.1875 Z M 199.28125 235.078125 C 199.15625 235.617188 199.5 236.152344 200.039062 236.273438 L 207.765625 237.960938 C 207.839844 237.984375 207.914062 237.984375 207.988281 237.984375 C 208.011719 237.984375 208.035156 237.960938 208.085938 237.960938 C 208.5 237.933594 208.867188 237.640625 208.992188 237.203125 C 209.113281 236.664062 208.769531 236.128906 208.207031 236.007812 L 208.085938 235.980469 L 200.476562 234.320312 C 199.941406 234.199219 199.402344 234.542969 199.28125 235.078125 Z M 199.28125 235.078125 " fill-opacity="1" fill-rule="evenodd"/><path fill="#545454" d="M 169.386719 237.8125 L 194.339844 243.257812 L 203.511719 245.261719 L 207.792969 246.1875 C 210.238281 246.726562 212.242188 248.019531 213.171875 249.632812 C 213.539062 250.292969 213.90625 251.292969 213.539062 252.441406 C 212.855469 254.492188 210.140625 255.933594 206.886719 255.933594 C 206.347656 255.933594 205.785156 255.835938 205.222656 255.761719 C 204.980469 255.714844 204.710938 255.738281 204.464844 255.664062 L 202.875 255.324219 L 175.578125 249.339844 L 173.105469 248.800781 L 166.085938 247.265625 C 163.640625 246.726562 161.632812 245.457031 160.703125 243.820312 C 160.335938 243.1875 159.972656 242.160156 160.335938 241.011719 C 160.777344 239.71875 162.074219 238.71875 163.761719 238.105469 C 164.375 237.886719 165.058594 237.738281 165.769531 237.640625 C 166.183594 237.59375 166.550781 237.496094 166.992188 237.496094 C 167.796875 237.496094 168.605469 237.59375 169.386719 237.765625 Z M 200.332031 248.484375 L 207.765625 250.097656 C 207.839844 250.121094 207.914062 250.121094 207.988281 250.121094 C 208.453125 250.121094 208.867188 249.804688 208.964844 249.339844 C 209.089844 248.800781 208.746094 248.265625 208.183594 248.144531 L 200.429688 246.433594 C 199.890625 246.3125 199.351562 246.652344 199.230469 247.191406 C 199.207031 247.363281 199.28125 247.484375 199.328125 247.628906 C 199.425781 247.972656 199.644531 248.289062 200.011719 248.386719 L 200.332031 248.460938 Z M 200.332031 248.484375 " fill-opacity="1" fill-rule="evenodd"/><path fill="#545454" d="M 173.691406 251.21875 L 203.753906 257.8125 L 206.007812 258.300781 L 207.792969 258.691406 C 210.214844 259.230469 212.242188 260.5 213.171875 262.136719 C 213.539062 262.796875 213.90625 263.796875 213.539062 264.945312 C 212.855469 266.996094 210.140625 268.4375 206.910156 268.4375 C 206.496094 268.4375 206.078125 268.339844 205.664062 268.289062 C 205.296875 268.242188 204.882812 268.242188 204.488281 268.167969 L 203.65625 267.972656 L 169.558594 260.5 L 167.601562 260.085938 L 166.085938 259.742188 C 163.640625 259.207031 161.632812 257.933594 160.703125 256.300781 C 160.167969 255.371094 160.042969 254.394531 160.335938 253.492188 C 161.023438 251.441406 163.738281 250 166.964844 250 C 167.773438 250 168.582031 250.097656 169.363281 250.265625 L 171.46875 250.730469 L 173.667969 251.21875 Z M 200.476562 258.914062 C 199.941406 258.789062 199.402344 259.132812 199.28125 259.667969 C 199.15625 260.230469 199.5 260.742188 200.039062 260.867188 L 204.441406 261.816406 L 206.496094 262.257812 L 207.765625 262.550781 C 207.839844 262.574219 207.914062 262.574219 207.988281 262.574219 C 208.453125 262.574219 208.867188 262.257812 208.964844 261.792969 C 209.089844 261.257812 208.746094 260.71875 208.183594 260.597656 L 206.25 260.183594 L 204.195312 259.71875 L 200.429688 258.914062 Z M 200.476562 258.914062 " fill-opacity="1" fill-rule="evenodd"/><g clip-path="url(#id1)"><path fill="#545454" d="M 169.339844 262.527344 L 202.949219 269.875 C 200.183594 275.980469 194.070312 280.253906 186.925781 280.253906 C 177.214844 280.253906 169.316406 272.367188 169.316406 262.671875 C 169.316406 262.625 169.339844 262.574219 169.339844 262.527344 Z M 183.84375 276.496094 C 184.015625 275.957031 183.699219 275.394531 183.183594 275.25 C 179.125 274.027344 175.894531 270.925781 174.523438 266.921875 C 174.328125 266.410156 173.765625 266.140625 173.253906 266.285156 C 172.738281 266.457031 172.445312 267.042969 172.617188 267.558594 C 174.207031 272.171875 177.949219 275.761719 182.621094 277.152344 C 182.71875 277.179688 182.816406 277.203125 182.914062 277.203125 C 183.355469 277.203125 183.746094 276.933594 183.867188 276.46875 Z M 183.84375 276.496094 " fill-opacity="1" fill-rule="evenodd"/></g><g clip-path="url(#id2)"><path fill="#545454" d="M 216.546875 204.308594 C 211.535156 211.367188 207.230469 217.472656 206.910156 222.257812 L 206.910156 231.292969 L 208.402344 231.609375 L 210.410156 232.050781 L 212.707031 232.5625 L 212.707031 222.453125 C 212.832031 220.988281 213.832031 218.914062 215.300781 216.46875 C 216.890625 213.832031 219.042969 210.78125 221.269531 207.628906 C 221.953125 206.679688 222.515625 205.847656 222.910156 205.308594 C 223.542969 204.40625 224.105469 203.601562 224.546875 202.964844 C 227.140625 199.207031 230.761719 193.269531 233.304688 186.484375 C 235.089844 181.695312 236.363281 176.46875 236.363281 171.292969 C 236.363281 157.886719 230.90625 145.726562 222.078125 136.933594 C 213.246094 128.117188 201.089844 122.671875 187.636719 122.671875 C 174.207031 122.671875 162.027344 128.117188 153.21875 136.933594 C 144.390625 145.75 138.933594 157.886719 138.933594 171.292969 C 138.933594 176.496094 140.207031 181.695312 141.992188 186.507812 C 144.535156 193.320312 148.15625 199.230469 150.75 202.992188 C 151.140625 203.550781 151.703125 204.382812 152.386719 205.335938 C 152.753906 205.871094 153.367188 206.703125 154.027344 207.65625 C 155.8125 210.171875 157.550781 212.636719 158.941406 214.785156 C 160.335938 216.933594 161.4375 218.914062 162.074219 220.597656 L 162.441406 221.550781 L 163.445312 221.769531 L 165.71875 222.257812 L 168.800781 222.941406 L 167.945312 219.914062 C 167.308594 217.691406 166.0625 215.25 164.398438 212.585938 C 162.785156 209.972656 160.828125 207.238281 158.773438 204.308594 C 158.085938 203.332031 157.523438 202.550781 157.15625 202.039062 C 156.71875 201.402344 156.179688 200.644531 155.566406 199.742188 C 153.539062 196.789062 150.824219 192.417969 148.621094 187.363281 C 146.445312 182.378906 144.757812 176.789062 144.78125 171.292969 C 144.78125 159.472656 149.597656 148.753906 157.351562 141.011719 C 165.109375 133.269531 175.847656 128.460938 187.683594 128.460938 C 199.523438 128.460938 210.238281 133.269531 218.015625 141.011719 C 225.796875 148.777344 230.613281 159.5 230.613281 171.292969 C 230.613281 175.785156 229.488281 180.351562 227.898438 184.578125 C 225.574219 190.757812 222.199219 196.226562 219.828125 199.71875 C 219.117188 200.742188 218.089844 202.183594 217.085938 203.625 L 216.621094 204.308594 Z M 216.546875 204.308594 " fill-opacity="1" fill-rule="nonzero"/></g><g clip-path="url(#id3)"><path fill="#ff914d" d="M 188.441406 116.8125 C 190.449219 116.8125 192.085938 115.175781 192.085938 113.171875 L 192.085938 98.644531 C 192.085938 96.640625 190.449219 95.003906 188.441406 95.003906 C 186.4375 95.003906 184.796875 96.640625 184.796875 98.644531 L 184.796875 113.171875 C 184.796875 115.175781 186.4375 116.8125 188.441406 116.8125 Z M 202.363281 119.621094 C 200.503906 118.863281 199.621094 116.714844 200.378906 114.882812 L 205.933594 101.453125 C 206.691406 99.597656 208.84375 98.71875 210.679688 99.472656 C 212.539062 100.230469 213.417969 102.378906 212.660156 104.210938 L 207.105469 117.644531 C 206.347656 119.5 204.195312 120.378906 202.363281 119.621094 Z M 172.910156 120.253906 C 174.769531 119.5 175.648438 117.347656 174.890625 115.519531 L 169.339844 102.085938 C 168.582031 100.230469 166.429688 99.351562 164.59375 100.109375 C 162.734375 100.867188 161.855469 103.015625 162.613281 104.847656 L 168.164062 118.277344 C 168.921875 120.132812 171.074219 121.011719 172.910156 120.253906 Z M 172.910156 120.253906 " fill-opacity="1" fill-rule="evenodd"/></g><path fill="#ff914d" d="M 185.679688 159.15625 C 185.753906 158.546875 186.316406 158.132812 186.925781 158.203125 C 187.539062 158.277344 187.953125 158.839844 187.878906 159.449219 C 187.734375 160.574219 188.050781 161.648438 188.6875 162.503906 C 189.324219 163.332031 190.277344 163.941406 191.402344 164.089844 C 192.015625 164.164062 192.429688 164.722656 192.355469 165.335938 C 192.285156 165.945312 191.722656 166.359375 191.109375 166.289062 C 189.371094 166.042969 187.90625 165.140625 186.925781 163.84375 C 186.925781 163.820312 186.902344 163.820312 186.902344 163.796875 C 185.53125 164.210938 182.890625 164.601562 181.105469 162.234375 C 180.738281 161.746094 180.835938 161.035156 181.324219 160.671875 C 181.8125 160.304688 182.523438 160.402344 182.890625 160.890625 C 183.746094 162.015625 185.042969 161.964844 185.898438 161.769531 C 185.65625 160.9375 185.582031 160.058594 185.703125 159.15625 Z M 206.03125 161.648438 Z M 187.929688 152.390625 Z M 186.023438 151.246094 Z M 166.085938 177.863281 Z M 167.554688 168.289062 Z M 169.460938 167.140625 Z M 167.382812 179.667969 Z M 203.730469 177.25 C 204.953125 176.03125 205.710938 174.347656 205.710938 172.464844 C 205.710938 170.609375 204.953125 168.925781 203.730469 167.679688 C 202.507812 166.457031 200.820312 165.699219 198.9375 165.699219 C 198.324219 165.699219 197.8125 165.210938 197.8125 164.578125 C 197.8125 163.96875 198.324219 163.453125 198.9375 163.453125 C 201.433594 163.453125 203.683594 164.457031 205.296875 166.09375 C 206.9375 167.726562 207.9375 169.976562 207.9375 172.441406 C 207.9375 173.125 207.863281 173.785156 207.71875 174.417969 C 208.402344 174.613281 209.113281 174.738281 209.871094 174.738281 C 213.832031 174.738281 217.085938 171.683594 217.40625 167.800781 C 219.117188 166.777344 220.265625 164.894531 220.265625 162.746094 C 220.265625 160.207031 218.652344 158.035156 216.402344 157.226562 C 215.621094 158.691406 214.445312 159.863281 213.074219 160.695312 C 211.09375 161.867188 208.671875 162.28125 206.25 161.671875 L 206.152344 161.648438 L 206.03125 161.574219 C 205.492188 161.304688 205.246094 160.621094 205.542969 160.085938 C 205.785156 159.621094 206.324219 159.375 206.8125 159.5 C 208.625 159.960938 210.457031 159.644531 211.949219 158.765625 C 213.441406 157.886719 214.59375 156.445312 215.058594 154.640625 C 215.300781 153.6875 215.324219 152.710938 215.15625 151.78125 C 214.296875 149.683594 212.660156 147.777344 210.457031 146.507812 C 210.359375 146.484375 210.261719 146.457031 210.164062 146.433594 C 209.917969 146.359375 209.699219 146.238281 209.554688 146.042969 C 209.285156 145.921875 208.992188 145.773438 208.695312 145.675781 C 205.566406 144.480469 202.289062 144.675781 199.695312 145.945312 C 198.351562 143.894531 196.027344 142.550781 193.382812 142.550781 C 191.769531 142.550781 190.277344 143.0625 189.054688 143.917969 C 189.273438 144.480469 189.421875 145.066406 189.519531 145.652344 C 189.886719 147.921875 189.398438 150.316406 187.953125 152.34375 C 187.636719 152.78125 187.050781 152.953125 186.558594 152.683594 C 186.023438 152.417969 185.777344 151.734375 186.070312 151.195312 L 186.167969 151.050781 C 187.269531 149.535156 187.636719 147.703125 187.34375 146.019531 C 187.171875 145.042969 186.804688 144.089844 186.21875 143.257812 C 184.996094 142.429688 183.527344 141.941406 181.960938 141.941406 C 177.949219 141.941406 174.648438 145.066406 174.402344 149.023438 C 173.105469 147.972656 171.441406 147.335938 169.65625 147.335938 C 169.363281 147.335938 169.09375 147.363281 168.824219 147.386719 C 168.703125 147.484375 168.582031 147.558594 168.410156 147.582031 C 166.601562 148.046875 165.15625 149.191406 164.277344 150.683594 C 163.394531 152.171875 163.078125 154.003906 163.542969 155.8125 C 164.007812 157.617188 165.15625 159.058594 166.648438 159.9375 C 168.140625 160.816406 169.976562 161.132812 171.785156 160.671875 L 171.933594 160.644531 L 172.078125 160.644531 C 172.691406 160.644531 173.203125 161.132812 173.203125 161.769531 C 173.203125 162.308594 172.8125 162.769531 172.324219 162.867188 C 169.925781 163.453125 167.527344 163.039062 165.546875 161.867188 C 163.566406 160.695312 162.027344 158.765625 161.414062 156.347656 L 161.390625 156.203125 C 161.292969 155.8125 161.242188 155.421875 161.195312 155.03125 C 157.746094 155.738281 155.152344 158.765625 155.152344 162.429688 C 155.152344 164.554688 156.03125 166.507812 157.476562 167.875 C 156.398438 169.167969 155.761719 170.828125 155.761719 172.660156 C 155.761719 173.859375 156.03125 175.003906 156.546875 176.007812 C 156.644531 176.078125 156.71875 176.152344 156.789062 176.25 C 157.867188 177.765625 159.480469 178.691406 161.195312 178.984375 C 162.90625 179.277344 164.714844 178.886719 166.234375 177.8125 C 167.75 176.738281 168.679688 175.128906 168.972656 173.441406 C 169.265625 171.734375 168.875 169.925781 167.796875 168.410156 L 167.699219 168.265625 C 167.429688 167.703125 167.652344 167.042969 168.191406 166.777344 C 168.679688 166.53125 169.289062 166.679688 169.582031 167.117188 C 171.027344 169.144531 171.515625 171.539062 171.148438 173.808594 C 170.78125 176.078125 169.535156 178.203125 167.503906 179.644531 C 167.234375 179.839844 166.964844 180.011719 166.671875 180.183594 C 166.671875 180.253906 166.671875 180.328125 166.671875 180.402344 C 166.671875 184.578125 170.046875 187.949219 174.230469 187.949219 C 176.457031 187.949219 178.464844 186.996094 179.832031 185.457031 L 179.929688 185.335938 C 180.054688 185.382812 180.175781 185.457031 180.273438 185.503906 C 180.394531 189.582031 179.097656 194.640625 176.3125 200.695312 C 182.867188 196.886719 187.613281 190.660156 190.570312 182.0625 C 190.71875 182.0625 190.863281 182.085938 191.035156 182.085938 C 193.1875 182.085938 195.070312 180.914062 196.097656 179.207031 C 195.878906 177.714844 195.195312 176.398438 194.191406 175.371094 C 192.96875 174.152344 191.28125 173.394531 189.398438 173.394531 C 188.785156 173.394531 188.273438 172.878906 188.273438 172.269531 C 188.273438 171.660156 188.761719 171.148438 189.398438 171.148438 C 191.890625 171.148438 194.144531 172.148438 195.757812 173.785156 C 197.199219 175.226562 198.152344 177.128906 198.351562 179.277344 C 198.398438 179.304688 198.449219 179.328125 198.496094 179.351562 C 198.644531 179.277344 198.839844 179.230469 199.011719 179.230469 C 200.871094 179.230469 202.558594 178.472656 203.804688 177.25 Z M 194.289062 151.976562 C 193.921875 151.488281 194.019531 150.78125 194.507812 150.414062 C 195 150.046875 195.707031 150.144531 196.074219 150.632812 C 196.929688 151.757812 198.226562 151.707031 199.082031 151.511719 C 198.839844 150.683594 198.765625 149.804688 198.886719 148.898438 C 198.960938 148.289062 199.523438 147.875 200.136719 147.949219 C 200.746094 148.019531 201.164062 148.582031 201.089844 149.191406 C 200.941406 150.316406 201.261719 151.390625 201.898438 152.246094 C 202.53125 153.074219 203.488281 153.664062 204.613281 153.832031 C 205.222656 153.90625 205.640625 154.46875 205.566406 155.078125 C 205.492188 155.6875 204.929688 156.105469 204.316406 156.03125 C 202.582031 155.785156 201.113281 154.882812 200.136719 153.589844 C 200.136719 153.5625 200.109375 153.5625 200.109375 153.539062 C 198.742188 153.957031 196.097656 154.347656 194.3125 151.976562 Z M 175.699219 172.539062 C 177.4375 172.78125 178.902344 173.6875 179.882812 174.980469 C 179.882812 175.003906 179.90625 175.003906 179.90625 175.03125 C 181.277344 174.613281 183.917969 174.222656 185.703125 176.59375 C 186.070312 177.082031 185.972656 177.789062 185.484375 178.15625 C 184.996094 178.523438 184.285156 178.425781 183.917969 177.9375 C 183.0625 176.8125 181.765625 176.859375 180.910156 177.054688 C 181.152344 177.886719 181.226562 178.765625 181.105469 179.667969 C 181.03125 180.28125 180.46875 180.695312 179.859375 180.621094 C 179.246094 180.546875 178.828125 179.988281 178.902344 179.375 C 179.050781 178.253906 178.730469 177.179688 178.097656 176.324219 C 177.460938 175.492188 176.507812 174.90625 175.382812 174.738281 C 174.769531 174.664062 174.355469 174.101562 174.425781 173.492188 C 174.5 172.878906 175.0625 172.464844 175.675781 172.539062 Z M 175.699219 172.539062 " fill-opacity="1" fill-rule="evenodd"/></svg>